<?xml version="1.0" encoding="UTF-8" standalone="no"?>
<!DOCTYPE svg PUBLIC "-//W3C//DTD SVG 1.1//EN"
 "http://www.w3.org/Graphics/SVG/1.1/DTD/svg11.dtd">
<!-- Generated by graphviz version 10.0.1 (20240210.2158)
 -->
<!-- Title: G Pages: 1 -->
<svg width="562pt" height="562pt"
 viewBox="0.00 0.00 562.40 562.40" xmlns="http://www.w3.org/2000/svg" xmlns:xlink="http://www.w3.org/1999/xlink">
<g id="graph0" class="graph" transform="scale(1 1) rotate(0) translate(4 558.4)">
<title>G</title>
<polygon fill="white" stroke="none" points="-4,4 -4,-558.4 558.4,-558.4 558.4,4 -4,4"/>
<!-- raiz -->
<g id="node1" class="node">
<title>raiz</title>
<polygon fill="#caff70" stroke="black" points="50.4,-554.4 0,-554.4 0,-504 50.4,-504 50.4,-554.4"/>
<text text-anchor="middle" x="25.2" y="-524.15" font-family="Arial" font-size="14.00">Root</text>
</g>
<!-- x1 -->
<g id="node2" class="node">
<title>x1</title>
<polygon fill="#c1cdcd" stroke="black" points="50.4,-482.4 0,-482.4 0,-432 50.4,-432 50.4,-482.4"/>
<text text-anchor="middle" x="25.2" y="-452.15" font-family="Arial" font-size="14.00">F1</text>
</g>
<!-- raiz&#45;&gt;x1 -->
<g id="edge13" class="edge">
<title>raiz&#45;&gt;x1</title>
<path fill="none" stroke="black" stroke-width="2" d="M25.2,-503.61C25.2,-500.54 25.2,-497.35 25.2,-494.15"/>
<polygon fill="black" stroke="black" stroke-width="2" points="28.7,-495.73 25.2,-485.73 21.7,-495.73 28.7,-495.73"/>
</g>
<!-- y1 -->
<g id="node9" class="node">
<title>y1</title>
<polygon fill="#c1cdcd" stroke="black" points="122.4,-554.4 72,-554.4 72,-504 122.4,-504 122.4,-554.4"/>
<text text-anchor="middle" x="97.2" y="-524.15" font-family="Arial" font-size="14.00">C1</text>
</g>
<!-- raiz&#45;&gt;y1 -->
<g id="edge26" class="edge">
<title>raiz&#45;&gt;y1</title>
<path fill="none" stroke="black" stroke-width="2" d="M50.79,-529.2C53.86,-529.2 57.05,-529.2 60.25,-529.2"/>
<polygon fill="black" stroke="black" stroke-width="2" points="58.67,-532.7 68.67,-529.2 58.67,-525.7 58.67,-532.7"/>
</g>
<!-- x2 -->
<g id="node3" class="node">
<title>x2</title>
<polygon fill="#c1cdcd" stroke="black" points="50.4,-410.4 0,-410.4 0,-360 50.4,-360 50.4,-410.4"/>
<text text-anchor="middle" x="25.2" y="-380.15" font-family="Arial" font-size="14.00">F2</text>
</g>
<!-- x1&#45;&gt;x2 -->
<g id="edge1" class="edge">
<title>x1&#45;&gt;x2</title>
<path fill="none" stroke="black" stroke-width="2" d="M31.69,-431.61C31.85,-428.54 31.93,-425.35 31.95,-422.15"/>
<polygon fill="black" stroke="black" stroke-width="2" points="35.48,-423.65 31.76,-413.73 28.48,-423.81 35.48,-423.65"/>
</g>
<!-- x1&#45;&gt;x2 -->
<g id="edge2" class="edge">
<title>x1&#45;&gt;x2</title>
<path fill="none" stroke="black" stroke-width="2" d="M18.45,-420.16C18.47,-416.97 18.55,-413.78 18.71,-410.7"/>
<polygon fill="black" stroke="black" stroke-width="2" points="14.92,-418.67 18.64,-428.59 21.92,-418.51 14.92,-418.67"/>
</g>
<!-- i1_1 -->
<g id="node16" class="node">
<title>i1_1</title>
<polygon fill="black" stroke="black" points="122.4,-482.4 72,-482.4 72,-432 122.4,-432 122.4,-482.4"/>
<text text-anchor="middle" x="97.2" y="-452.15" font-family="Arial" font-size="14.00">*</text>
</g>
<!-- x1&#45;&gt;i1_1 -->
<g id="edge33" class="edge">
<title>x1&#45;&gt;i1_1</title>
<path fill="none" stroke="black" stroke-width="2" d="M50.79,-463.69C53.86,-463.85 57.05,-463.93 60.25,-463.95"/>
<polygon fill="black" stroke="black" stroke-width="2" points="58.75,-467.48 68.67,-463.76 58.59,-460.48 58.75,-467.48"/>
</g>
<!-- x1&#45;&gt;i1_1 -->
<g id="edge34" class="edge">
<title>x1&#45;&gt;i1_1</title>
<path fill="none" stroke="black" stroke-width="2" d="M62.24,-450.45C65.43,-450.47 68.62,-450.55 71.7,-450.71"/>
<polygon fill="black" stroke="black" stroke-width="2" points="63.73,-446.92 53.81,-450.64 63.89,-453.92 63.73,-446.92"/>
</g>
<!-- x3 -->
<g id="node4" class="node">
<title>x3</title>
<polygon fill="#c1cdcd" stroke="black" points="50.4,-338.4 0,-338.4 0,-288 50.4,-288 50.4,-338.4"/>
<text text-anchor="middle" x="25.2" y="-308.15" font-family="Arial" font-size="14.00">F3</text>
</g>
<!-- x2&#45;&gt;x3 -->
<g id="edge3" class="edge">
<title>x2&#45;&gt;x3</title>
<path fill="none" stroke="black" stroke-width="2" d="M31.69,-359.61C31.85,-356.54 31.93,-353.35 31.95,-350.15"/>
<polygon fill="black" stroke="black" stroke-width="2" points="35.48,-351.65 31.76,-341.73 28.48,-351.81 35.48,-351.65"/>
</g>
<!-- x2&#45;&gt;x3 -->
<g id="edge4" class="edge">
<title>x2&#45;&gt;x3</title>
<path fill="none" stroke="black" stroke-width="2" d="M18.45,-348.16C18.47,-344.97 18.55,-341.78 18.71,-338.7"/>
<polygon fill="black" stroke="black" stroke-width="2" points="14.92,-346.67 18.64,-356.59 21.92,-346.51 14.92,-346.67"/>
</g>
<!-- i2_1 -->
<g id="node20" class="node">
<title>i2_1</title>
<polygon fill="black" stroke="black" points="122.4,-410.4 72,-410.4 72,-360 122.4,-360 122.4,-410.4"/>
<text text-anchor="middle" x="97.2" y="-380.15" font-family="Arial" font-size="14.00">*</text>
</g>
<!-- x2&#45;&gt;i2_1 -->
<g id="edge41" class="edge">
<title>x2&#45;&gt;i2_1</title>
<path fill="none" stroke="black" stroke-width="2" d="M50.79,-391.69C53.86,-391.85 57.05,-391.93 60.25,-391.95"/>
<polygon fill="black" stroke="black" stroke-width="2" points="58.75,-395.48 68.67,-391.76 58.59,-388.48 58.75,-395.48"/>
</g>
<!-- x2&#45;&gt;i2_1 -->
<g id="edge42" class="edge">
<title>x2&#45;&gt;i2_1</title>
<path fill="none" stroke="black" stroke-width="2" d="M62.24,-378.45C65.43,-378.47 68.62,-378.55 71.7,-378.71"/>
<polygon fill="black" stroke="black" stroke-width="2" points="63.73,-374.92 53.81,-378.64 63.89,-381.92 63.73,-374.92"/>
</g>
<!-- x4 -->
<g id="node5" class="node">
<title>x4</title>
<polygon fill="#c1cdcd" stroke="black" points="50.4,-266.4 0,-266.4 0,-216 50.4,-216 50.4,-266.4"/>
<text text-anchor="middle" x="25.2" y="-236.15" font-family="Arial" font-size="14.00">F4</text>
</g>
<!-- x3&#45;&gt;x4 -->
<g id="edge5" class="edge">
<title>x3&#45;&gt;x4</title>
<path fill="none" stroke="black" stroke-width="2" d="M31.69,-287.61C31.85,-284.54 31.93,-281.35 31.95,-278.15"/>
<polygon fill="black" stroke="black" stroke-width="2" points="35.48,-279.65 31.76,-269.73 28.48,-279.81 35.48,-279.65"/>
</g>
<!-- x3&#45;&gt;x4 -->
<g id="edge6" class="edge">
<title>x3&#45;&gt;x4</title>
<path fill="none" stroke="black" stroke-width="2" d="M18.45,-276.16C18.47,-272.97 18.55,-269.78 18.71,-266.7"/>
<polygon fill="black" stroke="black" stroke-width="2" points="14.92,-274.67 18.64,-284.59 21.92,-274.51 14.92,-274.67"/>
</g>
<!-- i3_1 -->
<g id="node24" class="node">
<title>i3_1</title>
<polygon fill="black" stroke="black" points="122.4,-338.4 72,-338.4 72,-288 122.4,-288 122.4,-338.4"/>
<text text-anchor="middle" x="97.2" y="-308.15" font-family="Arial" font-size="14.00">*</text>
</g>
<!-- x3&#45;&gt;i3_1 -->
<g id="edge49" class="edge">
<title>x3&#45;&gt;i3_1</title>
<path fill="none" stroke="black" stroke-width="2" d="M50.79,-319.69C53.86,-319.85 57.05,-319.93 60.25,-319.95"/>
<polygon fill="black" stroke="black" stroke-width="2" points="58.75,-323.48 68.67,-319.76 58.59,-316.48 58.75,-323.48"/>
</g>
<!-- x3&#45;&gt;i3_1 -->
<g id="edge50" class="edge">
<title>x3&#45;&gt;i3_1</title>
<path fill="none" stroke="black" stroke-width="2" d="M62.24,-306.45C65.43,-306.47 68.62,-306.55 71.7,-306.71"/>
<polygon fill="black" stroke="black" stroke-width="2" points="63.73,-302.92 53.81,-306.64 63.89,-309.92 63.73,-302.92"/>
</g>
<!-- x8 -->
<g id="node6" class="node">
<title>x8</title>
<polygon fill="#c1cdcd" stroke="black" points="50.4,-194.4 0,-194.4 0,-144 50.4,-144 50.4,-194.4"/>
<text text-anchor="middle" x="25.2" y="-164.15" font-family="Arial" font-size="14.00">F8</text>
</g>
<!-- x4&#45;&gt;x8 -->
<g id="edge7" class="edge">
<title>x4&#45;&gt;x8</title>
<path fill="none" stroke="black" stroke-width="2" d="M31.69,-215.61C31.85,-212.54 31.93,-209.35 31.95,-206.15"/>
<polygon fill="black" stroke="black" stroke-width="2" points="35.48,-207.65 31.76,-197.73 28.48,-207.81 35.48,-207.65"/>
</g>
<!-- x4&#45;&gt;x8 -->
<g id="edge8" class="edge">
<title>x4&#45;&gt;x8</title>
<path fill="none" stroke="black" stroke-width="2" d="M18.45,-204.16C18.47,-200.97 18.55,-197.78 18.71,-194.7"/>
<polygon fill="black" stroke="black" stroke-width="2" points="14.92,-202.67 18.64,-212.59 21.92,-202.51 14.92,-202.67"/>
</g>
<!-- i4_1 -->
<g id="node28" class="node">
<title>i4_1</title>
<polygon fill="black" stroke="black" points="122.4,-266.4 72,-266.4 72,-216 122.4,-216 122.4,-266.4"/>
<text text-anchor="middle" x="97.2" y="-236.15" font-family="Arial" font-size="14.00">*</text>
</g>
<!-- x4&#45;&gt;i4_1 -->
<g id="edge57" class="edge">
<title>x4&#45;&gt;i4_1</title>
<path fill="none" stroke="black" stroke-width="2" d="M50.79,-247.69C53.86,-247.85 57.05,-247.93 60.25,-247.95"/>
<polygon fill="black" stroke="black" stroke-width="2" points="58.75,-251.48 68.67,-247.76 58.59,-244.48 58.75,-251.48"/>
</g>
<!-- x4&#45;&gt;i4_1 -->
<g id="edge58" class="edge">
<title>x4&#45;&gt;i4_1</title>
<path fill="none" stroke="black" stroke-width="2" d="M62.24,-234.45C65.43,-234.47 68.62,-234.55 71.7,-234.71"/>
<polygon fill="black" stroke="black" stroke-width="2" points="63.73,-230.92 53.81,-234.64 63.89,-237.92 63.73,-230.92"/>
</g>
<!-- x9 -->
<g id="node7" class="node">
<title>x9</title>
<polygon fill="#c1cdcd" stroke="black" points="50.4,-122.4 0,-122.4 0,-72 50.4,-72 50.4,-122.4"/>
<text text-anchor="middle" x="25.2" y="-92.15" font-family="Arial" font-size="14.00">F9</text>
</g>
<!-- x8&#45;&gt;x9 -->
<g id="edge9" class="edge">
<title>x8&#45;&gt;x9</title>
<path fill="none" stroke="black" stroke-width="2" d="M31.69,-143.61C31.85,-140.54 31.93,-137.35 31.95,-134.15"/>
<polygon fill="black" stroke="black" stroke-width="2" points="35.48,-135.65 31.76,-125.73 28.48,-135.81 35.48,-135.65"/>
</g>
<!-- x8&#45;&gt;x9 -->
<g id="edge10" class="edge">
<title>x8&#45;&gt;x9</title>
<path fill="none" stroke="black" stroke-width="2" d="M18.45,-132.16C18.47,-128.97 18.55,-125.78 18.71,-122.7"/>
<polygon fill="black" stroke="black" stroke-width="2" points="14.92,-130.67 18.64,-140.59 21.92,-130.51 14.92,-130.67"/>
</g>
<!-- i8_9 -->
<g id="node32" class="node">
<title>i8_9</title>
<polygon fill="black" stroke="black" points="482.4,-194.4 432,-194.4 432,-144 482.4,-144 482.4,-194.4"/>
<text text-anchor="middle" x="457.2" y="-164.15" font-family="Arial" font-size="14.00">*</text>
</g>
<!-- x8&#45;&gt;i8_9 -->
<g id="edge59" class="edge">
<title>x8&#45;&gt;i8_9</title>
<path fill="none" stroke="black" stroke-width="2" d="M50.61,-172.59C123.68,-176.86 334.58,-177.06 420.31,-173.18"/>
<polygon fill="black" stroke="black" stroke-width="2" points="418.72,-176.77 428.53,-172.76 418.36,-169.78 418.72,-176.77"/>
</g>
<!-- x8&#45;&gt;i8_9 -->
<g id="edge60" class="edge">
<title>x8&#45;&gt;i8_9</title>
<path fill="none" stroke="black" stroke-width="2" d="M62.07,-165.22C147.69,-161.35 358.26,-161.54 431.55,-165.79"/>
<polygon fill="black" stroke="black" stroke-width="2" points="63.44,-161.64 53.63,-165.65 63.8,-168.63 63.44,-161.64"/>
</g>
<!-- x10 -->
<g id="node8" class="node">
<title>x10</title>
<polygon fill="#c1cdcd" stroke="black" points="50.4,-50.4 0,-50.4 0,0 50.4,0 50.4,-50.4"/>
<text text-anchor="middle" x="25.2" y="-20.15" font-family="Arial" font-size="14.00">F10</text>
</g>
<!-- x9&#45;&gt;x10 -->
<g id="edge11" class="edge">
<title>x9&#45;&gt;x10</title>
<path fill="none" stroke="black" stroke-width="2" d="M31.69,-71.61C31.85,-68.54 31.93,-65.35 31.95,-62.15"/>
<polygon fill="black" stroke="black" stroke-width="2" points="35.48,-63.65 31.76,-53.73 28.48,-63.81 35.48,-63.65"/>
</g>
<!-- x9&#45;&gt;x10 -->
<g id="edge12" class="edge">
<title>x9&#45;&gt;x10</title>
<path fill="none" stroke="black" stroke-width="2" d="M18.45,-60.16C18.47,-56.97 18.55,-53.78 18.71,-50.7"/>
<polygon fill="black" stroke="black" stroke-width="2" points="14.92,-58.67 18.64,-68.59 21.92,-58.51 14.92,-58.67"/>
</g>
<!-- i9_8 -->
<g id="node33" class="node">
<title>i9_8</title>
<polygon fill="black" stroke="black" points="410.4,-122.4 360,-122.4 360,-72 410.4,-72 410.4,-122.4"/>
<text text-anchor="middle" x="385.2" y="-92.15" font-family="Arial" font-size="14.00">*</text>
</g>
<!-- x9&#45;&gt;i9_8 -->
<g id="edge61" class="edge">
<title>x9&#45;&gt;i9_8</title>
<path fill="none" stroke="black" stroke-width="2" d="M50.8,-100.89C113.65,-104.76 275.69,-104.96 348.65,-101.48"/>
<polygon fill="black" stroke="black" stroke-width="2" points="347.15,-105.06 356.95,-101.03 346.77,-98.08 347.15,-105.06"/>
</g>
<!-- x9&#45;&gt;i9_8 -->
<g id="edge62" class="edge">
<title>x9&#45;&gt;i9_8</title>
<path fill="none" stroke="black" stroke-width="2" d="M62.19,-92.9C135.49,-89.43 297.52,-89.65 359.97,-93.54"/>
<polygon fill="black" stroke="black" stroke-width="2" points="63.62,-89.32 53.82,-93.35 64,-96.31 63.62,-89.32"/>
</g>
<!-- i10_10 -->
<g id="node34" class="node">
<title>i10_10</title>
<polygon fill="black" stroke="black" points="554.4,-50.4 504,-50.4 504,0 554.4,0 554.4,-50.4"/>
<text text-anchor="middle" x="529.2" y="-20.15" font-family="Arial" font-size="14.00">*</text>
</g>
<!-- x10&#45;&gt;i10_10 -->
<g id="edge63" class="edge">
<title>x10&#45;&gt;i10_10</title>
<path fill="none" stroke="black" stroke-width="2" d="M50.89,-28.39C133.88,-32.95 395.09,-33.13 492.28,-28.93"/>
<polygon fill="black" stroke="black" stroke-width="2" points="490.72,-32.51 500.54,-28.53 490.38,-25.52 490.72,-32.51"/>
</g>
<!-- x10&#45;&gt;i10_10 -->
<g id="edge64" class="edge">
<title>x10&#45;&gt;i10_10</title>
<path fill="none" stroke="black" stroke-width="2" d="M62.18,-21.47C159.44,-17.27 420.64,-17.45 503.57,-22.02"/>
<polygon fill="black" stroke="black" stroke-width="2" points="63.73,-17.89 53.91,-21.87 64.07,-24.88 63.73,-17.89"/>
</g>
<!-- y2 -->
<g id="node10" class="node">
<title>y2</title>
<polygon fill="#c1cdcd" stroke="black" points="194.4,-554.4 144,-554.4 144,-504 194.4,-504 194.4,-554.4"/>
<text text-anchor="middle" x="169.2" y="-524.15" font-family="Arial" font-size="14.00">C2</text>
</g>
<!-- y1&#45;&gt;y2 -->
<g id="edge14" class="edge">
<title>y1&#45;&gt;y2</title>
<path fill="none" stroke="black" stroke-width="2" d="M122.79,-535.69C125.86,-535.85 129.05,-535.93 132.25,-535.95"/>
<polygon fill="black" stroke="black" stroke-width="2" points="130.75,-539.48 140.67,-535.76 130.59,-532.48 130.75,-539.48"/>
</g>
<!-- y1&#45;&gt;y2 -->
<g id="edge15" class="edge">
<title>y1&#45;&gt;y2</title>
<path fill="none" stroke="black" stroke-width="2" d="M134.24,-522.45C137.43,-522.47 140.62,-522.55 143.7,-522.71"/>
<polygon fill="black" stroke="black" stroke-width="2" points="135.73,-518.92 125.81,-522.64 135.89,-525.92 135.73,-518.92"/>
</g>
<!-- y1&#45;&gt;i1_1 -->
<g id="edge71" class="edge">
<title>y1&#45;&gt;i1_1</title>
<path fill="none" stroke="black" stroke-width="2" d="M103.69,-503.61C103.85,-500.54 103.93,-497.35 103.95,-494.15"/>
<polygon fill="black" stroke="black" stroke-width="2" points="107.48,-495.65 103.76,-485.73 100.48,-495.81 107.48,-495.65"/>
</g>
<!-- y1&#45;&gt;i1_1 -->
<g id="edge72" class="edge">
<title>y1&#45;&gt;i1_1</title>
<path fill="none" stroke="black" stroke-width="2" d="M90.45,-492.16C90.47,-488.97 90.55,-485.78 90.71,-482.7"/>
<polygon fill="black" stroke="black" stroke-width="2" points="86.92,-490.67 90.64,-500.59 93.92,-490.51 86.92,-490.67"/>
</g>
<!-- y3 -->
<g id="node11" class="node">
<title>y3</title>
<polygon fill="#c1cdcd" stroke="black" points="266.4,-554.4 216,-554.4 216,-504 266.4,-504 266.4,-554.4"/>
<text text-anchor="middle" x="241.2" y="-524.15" font-family="Arial" font-size="14.00">C3</text>
</g>
<!-- y2&#45;&gt;y3 -->
<g id="edge16" class="edge">
<title>y2&#45;&gt;y3</title>
<path fill="none" stroke="black" stroke-width="2" d="M194.79,-535.69C197.86,-535.85 201.05,-535.93 204.25,-535.95"/>
<polygon fill="black" stroke="black" stroke-width="2" points="202.75,-539.48 212.67,-535.76 202.59,-532.48 202.75,-539.48"/>
</g>
<!-- y2&#45;&gt;y3 -->
<g id="edge17" class="edge">
<title>y2&#45;&gt;y3</title>
<path fill="none" stroke="black" stroke-width="2" d="M206.24,-522.45C209.43,-522.47 212.62,-522.55 215.7,-522.71"/>
<polygon fill="black" stroke="black" stroke-width="2" points="207.73,-518.92 197.81,-522.64 207.89,-525.92 207.73,-518.92"/>
</g>
<!-- i1_2 -->
<g id="node17" class="node">
<title>i1_2</title>
<polygon fill="black" stroke="black" points="194.4,-482.4 144,-482.4 144,-432 194.4,-432 194.4,-482.4"/>
<text text-anchor="middle" x="169.2" y="-452.15" font-family="Arial" font-size="14.00">*</text>
</g>
<!-- y2&#45;&gt;i1_2 -->
<g id="edge79" class="edge">
<title>y2&#45;&gt;i1_2</title>
<path fill="none" stroke="black" stroke-width="2" d="M175.69,-503.61C175.85,-500.54 175.93,-497.35 175.95,-494.15"/>
<polygon fill="black" stroke="black" stroke-width="2" points="179.48,-495.65 175.76,-485.73 172.48,-495.81 179.48,-495.65"/>
</g>
<!-- y2&#45;&gt;i1_2 -->
<g id="edge80" class="edge">
<title>y2&#45;&gt;i1_2</title>
<path fill="none" stroke="black" stroke-width="2" d="M162.45,-492.16C162.47,-488.97 162.55,-485.78 162.71,-482.7"/>
<polygon fill="black" stroke="black" stroke-width="2" points="158.92,-490.67 162.64,-500.59 165.92,-490.51 158.92,-490.67"/>
</g>
<!-- y4 -->
<g id="node12" class="node">
<title>y4</title>
<polygon fill="#c1cdcd" stroke="black" points="338.4,-554.4 288,-554.4 288,-504 338.4,-504 338.4,-554.4"/>
<text text-anchor="middle" x="313.2" y="-524.15" font-family="Arial" font-size="14.00">C4</text>
</g>
<!-- y3&#45;&gt;y4 -->
<g id="edge18" class="edge">
<title>y3&#45;&gt;y4</title>
<path fill="none" stroke="black" stroke-width="2" d="M266.79,-535.69C269.86,-535.85 273.05,-535.93 276.25,-535.95"/>
<polygon fill="black" stroke="black" stroke-width="2" points="274.75,-539.48 284.67,-535.76 274.59,-532.48 274.75,-539.48"/>
</g>
<!-- y3&#45;&gt;y4 -->
<g id="edge19" class="edge">
<title>y3&#45;&gt;y4</title>
<path fill="none" stroke="black" stroke-width="2" d="M278.24,-522.45C281.43,-522.47 284.62,-522.55 287.7,-522.71"/>
<polygon fill="black" stroke="black" stroke-width="2" points="279.73,-518.92 269.81,-522.64 279.89,-525.92 279.73,-518.92"/>
</g>
<!-- i1_3 -->
<g id="node18" class="node">
<title>i1_3</title>
<polygon fill="black" stroke="black" points="266.4,-482.4 216,-482.4 216,-432 266.4,-432 266.4,-482.4"/>
<text text-anchor="middle" x="241.2" y="-452.15" font-family="Arial" font-size="14.00">*</text>
</g>
<!-- y3&#45;&gt;i1_3 -->
<g id="edge87" class="edge">
<title>y3&#45;&gt;i1_3</title>
<path fill="none" stroke="black" stroke-width="2" d="M247.69,-503.61C247.85,-500.54 247.93,-497.35 247.95,-494.15"/>
<polygon fill="black" stroke="black" stroke-width="2" points="251.48,-495.65 247.76,-485.73 244.48,-495.81 251.48,-495.65"/>
</g>
<!-- y3&#45;&gt;i1_3 -->
<g id="edge88" class="edge">
<title>y3&#45;&gt;i1_3</title>
<path fill="none" stroke="black" stroke-width="2" d="M234.45,-492.16C234.47,-488.97 234.55,-485.78 234.71,-482.7"/>
<polygon fill="black" stroke="black" stroke-width="2" points="230.92,-490.67 234.64,-500.59 237.92,-490.51 230.92,-490.67"/>
</g>
<!-- y8 -->
<g id="node13" class="node">
<title>y8</title>
<polygon fill="#c1cdcd" stroke="black" points="410.4,-554.4 360,-554.4 360,-504 410.4,-504 410.4,-554.4"/>
<text text-anchor="middle" x="385.2" y="-524.15" font-family="Arial" font-size="14.00">C8</text>
</g>
<!-- y4&#45;&gt;y8 -->
<g id="edge20" class="edge">
<title>y4&#45;&gt;y8</title>
<path fill="none" stroke="black" stroke-width="2" d="M338.79,-535.69C341.86,-535.85 345.05,-535.93 348.25,-535.95"/>
<polygon fill="black" stroke="black" stroke-width="2" points="346.75,-539.48 356.67,-535.76 346.59,-532.48 346.75,-539.48"/>
</g>
<!-- y4&#45;&gt;y8 -->
<g id="edge21" class="edge">
<title>y4&#45;&gt;y8</title>
<path fill="none" stroke="black" stroke-width="2" d="M350.24,-522.45C353.43,-522.47 356.62,-522.55 359.7,-522.71"/>
<polygon fill="black" stroke="black" stroke-width="2" points="351.73,-518.92 341.81,-522.64 351.89,-525.92 351.73,-518.92"/>
</g>
<!-- i1_4 -->
<g id="node19" class="node">
<title>i1_4</title>
<polygon fill="black" stroke="black" points="338.4,-482.4 288,-482.4 288,-432 338.4,-432 338.4,-482.4"/>
<text text-anchor="middle" x="313.2" y="-452.15" font-family="Arial" font-size="14.00">*</text>
</g>
<!-- y4&#45;&gt;i1_4 -->
<g id="edge95" class="edge">
<title>y4&#45;&gt;i1_4</title>
<path fill="none" stroke="black" stroke-width="2" d="M319.69,-503.61C319.85,-500.54 319.93,-497.35 319.95,-494.15"/>
<polygon fill="black" stroke="black" stroke-width="2" points="323.48,-495.65 319.76,-485.73 316.48,-495.81 323.48,-495.65"/>
</g>
<!-- y4&#45;&gt;i1_4 -->
<g id="edge96" class="edge">
<title>y4&#45;&gt;i1_4</title>
<path fill="none" stroke="black" stroke-width="2" d="M306.45,-492.16C306.47,-488.97 306.55,-485.78 306.71,-482.7"/>
<polygon fill="black" stroke="black" stroke-width="2" points="302.92,-490.67 306.64,-500.59 309.92,-490.51 302.92,-490.67"/>
</g>
<!-- y9 -->
<g id="node14" class="node">
<title>y9</title>
<polygon fill="#c1cdcd" stroke="black" points="482.4,-554.4 432,-554.4 432,-504 482.4,-504 482.4,-554.4"/>
<text text-anchor="middle" x="457.2" y="-524.15" font-family="Arial" font-size="14.00">C9</text>
</g>
<!-- y8&#45;&gt;y9 -->
<g id="edge22" class="edge">
<title>y8&#45;&gt;y9</title>
<path fill="none" stroke="black" stroke-width="2" d="M410.79,-535.69C413.86,-535.85 417.05,-535.93 420.25,-535.95"/>
<polygon fill="black" stroke="black" stroke-width="2" points="418.75,-539.48 428.67,-535.76 418.59,-532.48 418.75,-539.48"/>
</g>
<!-- y8&#45;&gt;y9 -->
<g id="edge23" class="edge">
<title>y8&#45;&gt;y9</title>
<path fill="none" stroke="black" stroke-width="2" d="M422.24,-522.45C425.43,-522.47 428.62,-522.55 431.7,-522.71"/>
<polygon fill="black" stroke="black" stroke-width="2" points="423.73,-518.92 413.81,-522.64 423.89,-525.92 423.73,-518.92"/>
</g>
<!-- y8&#45;&gt;i9_8 -->
<g id="edge97" class="edge">
<title>y8&#45;&gt;i9_8</title>
<path fill="none" stroke="black" stroke-width="2" d="M388.59,-503.79C392.86,-430.72 393.06,-219.82 389.18,-134.09"/>
<polygon fill="black" stroke="black" stroke-width="2" points="392.77,-135.68 388.76,-125.87 385.78,-136.04 392.77,-135.68"/>
</g>
<!-- y8&#45;&gt;i9_8 -->
<g id="edge98" class="edge">
<title>y8&#45;&gt;i9_8</title>
<path fill="none" stroke="black" stroke-width="2" d="M381.22,-492.33C377.35,-406.71 377.54,-196.14 381.79,-122.85"/>
<polygon fill="black" stroke="black" stroke-width="2" points="377.64,-490.96 381.65,-500.77 384.63,-490.6 377.64,-490.96"/>
</g>
<!-- y10 -->
<g id="node15" class="node">
<title>y10</title>
<polygon fill="#c1cdcd" stroke="black" points="554.4,-554.4 504,-554.4 504,-504 554.4,-504 554.4,-554.4"/>
<text text-anchor="middle" x="529.2" y="-524.15" font-family="Arial" font-size="14.00">C10</text>
</g>
<!-- y9&#45;&gt;y10 -->
<g id="edge24" class="edge">
<title>y9&#45;&gt;y10</title>
<path fill="none" stroke="black" stroke-width="2" d="M482.79,-535.69C485.86,-535.85 489.05,-535.93 492.25,-535.95"/>
<polygon fill="black" stroke="black" stroke-width="2" points="490.75,-539.48 500.67,-535.76 490.59,-532.48 490.75,-539.48"/>
</g>
<!-- y9&#45;&gt;y10 -->
<g id="edge25" class="edge">
<title>y9&#45;&gt;y10</title>
<path fill="none" stroke="black" stroke-width="2" d="M494.24,-522.45C497.43,-522.47 500.62,-522.55 503.7,-522.71"/>
<polygon fill="black" stroke="black" stroke-width="2" points="495.73,-518.92 485.81,-522.64 495.89,-525.92 495.73,-518.92"/>
</g>
<!-- y9&#45;&gt;i8_9 -->
<g id="edge99" class="edge">
<title>y9&#45;&gt;i8_9</title>
<path fill="none" stroke="black" stroke-width="2" d="M460.89,-503.6C464.76,-440.75 464.96,-278.71 461.48,-205.75"/>
<polygon fill="black" stroke="black" stroke-width="2" points="465.06,-207.25 461.03,-197.45 458.08,-207.63 465.06,-207.25"/>
</g>
<!-- y9&#45;&gt;i8_9 -->
<g id="edge100" class="edge">
<title>y9&#45;&gt;i8_9</title>
<path fill="none" stroke="black" stroke-width="2" d="M452.9,-492.21C449.43,-418.91 449.65,-256.88 453.54,-194.43"/>
<polygon fill="black" stroke="black" stroke-width="2" points="449.32,-490.78 453.35,-500.58 456.31,-490.4 449.32,-490.78"/>
</g>
<!-- y10&#45;&gt;i10_10 -->
<g id="edge101" class="edge">
<title>y10&#45;&gt;i10_10</title>
<path fill="none" stroke="black" stroke-width="2" d="M532.39,-503.51C536.95,-420.52 537.13,-159.31 532.93,-62.12"/>
<polygon fill="black" stroke="black" stroke-width="2" points="536.51,-63.68 532.53,-53.86 529.52,-64.02 536.51,-63.68"/>
</g>
<!-- y10&#45;&gt;i10_10 -->
<g id="edge102" class="edge">
<title>y10&#45;&gt;i10_10</title>
<path fill="none" stroke="black" stroke-width="2" d="M525.47,-492.22C521.27,-394.96 521.45,-133.76 526.02,-50.83"/>
<polygon fill="black" stroke="black" stroke-width="2" points="521.89,-490.67 525.87,-500.49 528.88,-490.33 521.89,-490.67"/>
</g>
<!-- i1_1&#45;&gt;i1_2 -->
<g id="edge27" class="edge">
<title>i1_1&#45;&gt;i1_2</title>
<path fill="none" stroke="black" stroke-width="2" d="M122.79,-463.69C125.86,-463.85 129.05,-463.93 132.25,-463.95"/>
<polygon fill="black" stroke="black" stroke-width="2" points="130.75,-467.48 140.67,-463.76 130.59,-460.48 130.75,-467.48"/>
</g>
<!-- i1_1&#45;&gt;i1_2 -->
<g id="edge28" class="edge">
<title>i1_1&#45;&gt;i1_2</title>
<path fill="none" stroke="black" stroke-width="2" d="M134.24,-450.45C137.43,-450.47 140.62,-450.55 143.7,-450.71"/>
<polygon fill="black" stroke="black" stroke-width="2" points="135.73,-446.92 125.81,-450.64 135.89,-453.92 135.73,-446.92"/>
</g>
<!-- i1_1&#45;&gt;i2_1 -->
<g id="edge65" class="edge">
<title>i1_1&#45;&gt;i2_1</title>
<path fill="none" stroke="black" stroke-width="2" d="M103.69,-431.61C103.85,-428.54 103.93,-425.35 103.95,-422.15"/>
<polygon fill="black" stroke="black" stroke-width="2" points="107.48,-423.65 103.76,-413.73 100.48,-423.81 107.48,-423.65"/>
</g>
<!-- i1_1&#45;&gt;i2_1 -->
<g id="edge66" class="edge">
<title>i1_1&#45;&gt;i2_1</title>
<path fill="none" stroke="black" stroke-width="2" d="M90.45,-420.16C90.47,-416.97 90.55,-413.78 90.71,-410.7"/>
<polygon fill="black" stroke="black" stroke-width="2" points="86.92,-418.67 90.64,-428.59 93.92,-418.51 86.92,-418.67"/>
</g>
<!-- i1_2&#45;&gt;i1_3 -->
<g id="edge29" class="edge">
<title>i1_2&#45;&gt;i1_3</title>
<path fill="none" stroke="black" stroke-width="2" d="M194.79,-463.69C197.86,-463.85 201.05,-463.93 204.25,-463.95"/>
<polygon fill="black" stroke="black" stroke-width="2" points="202.75,-467.48 212.67,-463.76 202.59,-460.48 202.75,-467.48"/>
</g>
<!-- i1_2&#45;&gt;i1_3 -->
<g id="edge30" class="edge">
<title>i1_2&#45;&gt;i1_3</title>
<path fill="none" stroke="black" stroke-width="2" d="M206.24,-450.45C209.43,-450.47 212.62,-450.55 215.7,-450.71"/>
<polygon fill="black" stroke="black" stroke-width="2" points="207.73,-446.92 197.81,-450.64 207.89,-453.92 207.73,-446.92"/>
</g>
<!-- i2_2 -->
<g id="node21" class="node">
<title>i2_2</title>
<polygon fill="black" stroke="black" points="194.4,-410.4 144,-410.4 144,-360 194.4,-360 194.4,-410.4"/>
<text text-anchor="middle" x="169.2" y="-380.15" font-family="Arial" font-size="14.00">*</text>
</g>
<!-- i1_2&#45;&gt;i2_2 -->
<g id="edge73" class="edge">
<title>i1_2&#45;&gt;i2_2</title>
<path fill="none" stroke="black" stroke-width="2" d="M175.69,-431.61C175.85,-428.54 175.93,-425.35 175.95,-422.15"/>
<polygon fill="black" stroke="black" stroke-width="2" points="179.48,-423.65 175.76,-413.73 172.48,-423.81 179.48,-423.65"/>
</g>
<!-- i1_2&#45;&gt;i2_2 -->
<g id="edge74" class="edge">
<title>i1_2&#45;&gt;i2_2</title>
<path fill="none" stroke="black" stroke-width="2" d="M162.45,-420.16C162.47,-416.97 162.55,-413.78 162.71,-410.7"/>
<polygon fill="black" stroke="black" stroke-width="2" points="158.92,-418.67 162.64,-428.59 165.92,-418.51 158.92,-418.67"/>
</g>
<!-- i1_3&#45;&gt;i1_4 -->
<g id="edge31" class="edge">
<title>i1_3&#45;&gt;i1_4</title>
<path fill="none" stroke="black" stroke-width="2" d="M266.79,-463.69C269.86,-463.85 273.05,-463.93 276.25,-463.95"/>
<polygon fill="black" stroke="black" stroke-width="2" points="274.75,-467.48 284.67,-463.76 274.59,-460.48 274.75,-467.48"/>
</g>
<!-- i1_3&#45;&gt;i1_4 -->
<g id="edge32" class="edge">
<title>i1_3&#45;&gt;i1_4</title>
<path fill="none" stroke="black" stroke-width="2" d="M278.24,-450.45C281.43,-450.47 284.62,-450.55 287.7,-450.71"/>
<polygon fill="black" stroke="black" stroke-width="2" points="279.73,-446.92 269.81,-450.64 279.89,-453.92 279.73,-446.92"/>
</g>
<!-- i2_3 -->
<g id="node22" class="node">
<title>i2_3</title>
<polygon fill="black" stroke="black" points="266.4,-410.4 216,-410.4 216,-360 266.4,-360 266.4,-410.4"/>
<text text-anchor="middle" x="241.2" y="-380.15" font-family="Arial" font-size="14.00">*</text>
</g>
<!-- i1_3&#45;&gt;i2_3 -->
<g id="edge81" class="edge">
<title>i1_3&#45;&gt;i2_3</title>
<path fill="none" stroke="black" stroke-width="2" d="M247.69,-431.61C247.85,-428.54 247.93,-425.35 247.95,-422.15"/>
<polygon fill="black" stroke="black" stroke-width="2" points="251.48,-423.65 247.76,-413.73 244.48,-423.81 251.48,-423.65"/>
</g>
<!-- i1_3&#45;&gt;i2_3 -->
<g id="edge82" class="edge">
<title>i1_3&#45;&gt;i2_3</title>
<path fill="none" stroke="black" stroke-width="2" d="M234.45,-420.16C234.47,-416.97 234.55,-413.78 234.71,-410.7"/>
<polygon fill="black" stroke="black" stroke-width="2" points="230.92,-418.67 234.64,-428.59 237.92,-418.51 230.92,-418.67"/>
</g>
<!-- i2_4 -->
<g id="node23" class="node">
<title>i2_4</title>
<polygon fill="black" stroke="black" points="338.4,-410.4 288,-410.4 288,-360 338.4,-360 338.4,-410.4"/>
<text text-anchor="middle" x="313.2" y="-380.15" font-family="Arial" font-size="14.00">*</text>
</g>
<!-- i1_4&#45;&gt;i2_4 -->
<g id="edge89" class="edge">
<title>i1_4&#45;&gt;i2_4</title>
<path fill="none" stroke="black" stroke-width="2" d="M319.69,-431.61C319.85,-428.54 319.93,-425.35 319.95,-422.15"/>
<polygon fill="black" stroke="black" stroke-width="2" points="323.48,-423.65 319.76,-413.73 316.48,-423.81 323.48,-423.65"/>
</g>
<!-- i1_4&#45;&gt;i2_4 -->
<g id="edge90" class="edge">
<title>i1_4&#45;&gt;i2_4</title>
<path fill="none" stroke="black" stroke-width="2" d="M306.45,-420.16C306.47,-416.97 306.55,-413.78 306.71,-410.7"/>
<polygon fill="black" stroke="black" stroke-width="2" points="302.92,-418.67 306.64,-428.59 309.92,-418.51 302.92,-418.67"/>
</g>
<!-- i2_1&#45;&gt;i2_2 -->
<g id="edge35" class="edge">
<title>i2_1&#45;&gt;i2_2</title>
<path fill="none" stroke="black" stroke-width="2" d="M122.79,-391.69C125.86,-391.85 129.05,-391.93 132.25,-391.95"/>
<polygon fill="black" stroke="black" stroke-width="2" points="130.75,-395.48 140.67,-391.76 130.59,-388.48 130.75,-395.48"/>
</g>
<!-- i2_1&#45;&gt;i2_2 -->
<g id="edge36" class="edge">
<title>i2_1&#45;&gt;i2_2</title>
<path fill="none" stroke="black" stroke-width="2" d="M134.24,-378.45C137.43,-378.47 140.62,-378.55 143.7,-378.71"/>
<polygon fill="black" stroke="black" stroke-width="2" points="135.73,-374.92 125.81,-378.64 135.89,-381.92 135.73,-374.92"/>
</g>
<!-- i2_1&#45;&gt;i3_1 -->
<g id="edge67" class="edge">
<title>i2_1&#45;&gt;i3_1</title>
<path fill="none" stroke="black" stroke-width="2" d="M103.69,-359.61C103.85,-356.54 103.93,-353.35 103.95,-350.15"/>
<polygon fill="black" stroke="black" stroke-width="2" points="107.48,-351.65 103.76,-341.73 100.48,-351.81 107.48,-351.65"/>
</g>
<!-- i2_1&#45;&gt;i3_1 -->
<g id="edge68" class="edge">
<title>i2_1&#45;&gt;i3_1</title>
<path fill="none" stroke="black" stroke-width="2" d="M90.45,-348.16C90.47,-344.97 90.55,-341.78 90.71,-338.7"/>
<polygon fill="black" stroke="black" stroke-width="2" points="86.92,-346.67 90.64,-356.59 93.92,-346.51 86.92,-346.67"/>
</g>
<!-- i2_2&#45;&gt;i2_3 -->
<g id="edge37" class="edge">
<title>i2_2&#45;&gt;i2_3</title>
<path fill="none" stroke="black" stroke-width="2" d="M194.79,-391.69C197.86,-391.85 201.05,-391.93 204.25,-391.95"/>
<polygon fill="black" stroke="black" stroke-width="2" points="202.75,-395.48 212.67,-391.76 202.59,-388.48 202.75,-395.48"/>
</g>
<!-- i2_2&#45;&gt;i2_3 -->
<g id="edge38" class="edge">
<title>i2_2&#45;&gt;i2_3</title>
<path fill="none" stroke="black" stroke-width="2" d="M206.24,-378.45C209.43,-378.47 212.62,-378.55 215.7,-378.71"/>
<polygon fill="black" stroke="black" stroke-width="2" points="207.73,-374.92 197.81,-378.64 207.89,-381.92 207.73,-374.92"/>
</g>
<!-- i3_2 -->
<g id="node25" class="node">
<title>i3_2</title>
<polygon fill="black" stroke="black" points="194.4,-338.4 144,-338.4 144,-288 194.4,-288 194.4,-338.4"/>
<text text-anchor="middle" x="169.2" y="-308.15" font-family="Arial" font-size="14.00">*</text>
</g>
<!-- i2_2&#45;&gt;i3_2 -->
<g id="edge75" class="edge">
<title>i2_2&#45;&gt;i3_2</title>
<path fill="none" stroke="black" stroke-width="2" d="M175.69,-359.61C175.85,-356.54 175.93,-353.35 175.95,-350.15"/>
<polygon fill="black" stroke="black" stroke-width="2" points="179.48,-351.65 175.76,-341.73 172.48,-351.81 179.48,-351.65"/>
</g>
<!-- i2_2&#45;&gt;i3_2 -->
<g id="edge76" class="edge">
<title>i2_2&#45;&gt;i3_2</title>
<path fill="none" stroke="black" stroke-width="2" d="M162.45,-348.16C162.47,-344.97 162.55,-341.78 162.71,-338.7"/>
<polygon fill="black" stroke="black" stroke-width="2" points="158.92,-346.67 162.64,-356.59 165.92,-346.51 158.92,-346.67"/>
</g>
<!-- i2_3&#45;&gt;i2_4 -->
<g id="edge39" class="edge">
<title>i2_3&#45;&gt;i2_4</title>
<path fill="none" stroke="black" stroke-width="2" d="M266.79,-391.69C269.86,-391.85 273.05,-391.93 276.25,-391.95"/>
<polygon fill="black" stroke="black" stroke-width="2" points="274.75,-395.48 284.67,-391.76 274.59,-388.48 274.75,-395.48"/>
</g>
<!-- i2_3&#45;&gt;i2_4 -->
<g id="edge40" class="edge">
<title>i2_3&#45;&gt;i2_4</title>
<path fill="none" stroke="black" stroke-width="2" d="M278.24,-378.45C281.43,-378.47 284.62,-378.55 287.7,-378.71"/>
<polygon fill="black" stroke="black" stroke-width="2" points="279.73,-374.92 269.81,-378.64 279.89,-381.92 279.73,-374.92"/>
</g>
<!-- i3_3 -->
<g id="node26" class="node">
<title>i3_3</title>
<polygon fill="black" stroke="black" points="266.4,-338.4 216,-338.4 216,-288 266.4,-288 266.4,-338.4"/>
<text text-anchor="middle" x="241.2" y="-308.15" font-family="Arial" font-size="14.00">*</text>
</g>
<!-- i2_3&#45;&gt;i3_3 -->
<g id="edge83" class="edge">
<title>i2_3&#45;&gt;i3_3</title>
<path fill="none" stroke="black" stroke-width="2" d="M247.69,-359.61C247.85,-356.54 247.93,-353.35 247.95,-350.15"/>
<polygon fill="black" stroke="black" stroke-width="2" points="251.48,-351.65 247.76,-341.73 244.48,-351.81 251.48,-351.65"/>
</g>
<!-- i2_3&#45;&gt;i3_3 -->
<g id="edge84" class="edge">
<title>i2_3&#45;&gt;i3_3</title>
<path fill="none" stroke="black" stroke-width="2" d="M234.45,-348.16C234.47,-344.97 234.55,-341.78 234.71,-338.7"/>
<polygon fill="black" stroke="black" stroke-width="2" points="230.92,-346.67 234.64,-356.59 237.92,-346.51 230.92,-346.67"/>
</g>
<!-- i3_4 -->
<g id="node27" class="node">
<title>i3_4</title>
<polygon fill="black" stroke="black" points="338.4,-338.4 288,-338.4 288,-288 338.4,-288 338.4,-338.4"/>
<text text-anchor="middle" x="313.2" y="-308.15" font-family="Arial" font-size="14.00">*</text>
</g>
<!-- i2_4&#45;&gt;i3_4 -->
<g id="edge91" class="edge">
<title>i2_4&#45;&gt;i3_4</title>
<path fill="none" stroke="black" stroke-width="2" d="M319.69,-359.61C319.85,-356.54 319.93,-353.35 319.95,-350.15"/>
<polygon fill="black" stroke="black" stroke-width="2" points="323.48,-351.65 319.76,-341.73 316.48,-351.81 323.48,-351.65"/>
</g>
<!-- i2_4&#45;&gt;i3_4 -->
<g id="edge92" class="edge">
<title>i2_4&#45;&gt;i3_4</title>
<path fill="none" stroke="black" stroke-width="2" d="M306.45,-348.16C306.47,-344.97 306.55,-341.78 306.71,-338.7"/>
<polygon fill="black" stroke="black" stroke-width="2" points="302.92,-346.67 306.64,-356.59 309.92,-346.51 302.92,-346.67"/>
</g>
<!-- i3_1&#45;&gt;i3_2 -->
<g id="edge43" class="edge">
<title>i3_1&#45;&gt;i3_2</title>
<path fill="none" stroke="black" stroke-width="2" d="M122.79,-319.69C125.86,-319.85 129.05,-319.93 132.25,-319.95"/>
<polygon fill="black" stroke="black" stroke-width="2" points="130.75,-323.48 140.67,-319.76 130.59,-316.48 130.75,-323.48"/>
</g>
<!-- i3_1&#45;&gt;i3_2 -->
<g id="edge44" class="edge">
<title>i3_1&#45;&gt;i3_2</title>
<path fill="none" stroke="black" stroke-width="2" d="M134.24,-306.45C137.43,-306.47 140.62,-306.55 143.7,-306.71"/>
<polygon fill="black" stroke="black" stroke-width="2" points="135.73,-302.92 125.81,-306.64 135.89,-309.92 135.73,-302.92"/>
</g>
<!-- i3_1&#45;&gt;i4_1 -->
<g id="edge69" class="edge">
<title>i3_1&#45;&gt;i4_1</title>
<path fill="none" stroke="black" stroke-width="2" d="M103.69,-287.61C103.85,-284.54 103.93,-281.35 103.95,-278.15"/>
<polygon fill="black" stroke="black" stroke-width="2" points="107.48,-279.65 103.76,-269.73 100.48,-279.81 107.48,-279.65"/>
</g>
<!-- i3_1&#45;&gt;i4_1 -->
<g id="edge70" class="edge">
<title>i3_1&#45;&gt;i4_1</title>
<path fill="none" stroke="black" stroke-width="2" d="M90.45,-276.16C90.47,-272.97 90.55,-269.78 90.71,-266.7"/>
<polygon fill="black" stroke="black" stroke-width="2" points="86.92,-274.67 90.64,-284.59 93.92,-274.51 86.92,-274.67"/>
</g>
<!-- i3_2&#45;&gt;i3_3 -->
<g id="edge45" class="edge">
<title>i3_2&#45;&gt;i3_3</title>
<path fill="none" stroke="black" stroke-width="2" d="M194.79,-319.69C197.86,-319.85 201.05,-319.93 204.25,-319.95"/>
<polygon fill="black" stroke="black" stroke-width="2" points="202.75,-323.48 212.67,-319.76 202.59,-316.48 202.75,-323.48"/>
</g>
<!-- i3_2&#45;&gt;i3_3 -->
<g id="edge46" class="edge">
<title>i3_2&#45;&gt;i3_3</title>
<path fill="none" stroke="black" stroke-width="2" d="M206.24,-306.45C209.43,-306.47 212.62,-306.55 215.7,-306.71"/>
<polygon fill="black" stroke="black" stroke-width="2" points="207.73,-302.92 197.81,-306.64 207.89,-309.92 207.73,-302.92"/>
</g>
<!-- i4_2 -->
<g id="node29" class="node">
<title>i4_2</title>
<polygon fill="black" stroke="black" points="194.4,-266.4 144,-266.4 144,-216 194.4,-216 194.4,-266.4"/>
<text text-anchor="middle" x="169.2" y="-236.15" font-family="Arial" font-size="14.00">*</text>
</g>
<!-- i3_2&#45;&gt;i4_2 -->
<g id="edge77" class="edge">
<title>i3_2&#45;&gt;i4_2</title>
<path fill="none" stroke="black" stroke-width="2" d="M175.69,-287.61C175.85,-284.54 175.93,-281.35 175.95,-278.15"/>
<polygon fill="black" stroke="black" stroke-width="2" points="179.48,-279.65 175.76,-269.73 172.48,-279.81 179.48,-279.65"/>
</g>
<!-- i3_2&#45;&gt;i4_2 -->
<g id="edge78" class="edge">
<title>i3_2&#45;&gt;i4_2</title>
<path fill="none" stroke="black" stroke-width="2" d="M162.45,-276.16C162.47,-272.97 162.55,-269.78 162.71,-266.7"/>
<polygon fill="black" stroke="black" stroke-width="2" points="158.92,-274.67 162.64,-284.59 165.92,-274.51 158.92,-274.67"/>
</g>
<!-- i3_3&#45;&gt;i3_4 -->
<g id="edge47" class="edge">
<title>i3_3&#45;&gt;i3_4</title>
<path fill="none" stroke="black" stroke-width="2" d="M266.79,-319.69C269.86,-319.85 273.05,-319.93 276.25,-319.95"/>
<polygon fill="black" stroke="black" stroke-width="2" points="274.75,-323.48 284.67,-319.76 274.59,-316.48 274.75,-323.48"/>
</g>
<!-- i3_3&#45;&gt;i3_4 -->
<g id="edge48" class="edge">
<title>i3_3&#45;&gt;i3_4</title>
<path fill="none" stroke="black" stroke-width="2" d="M278.24,-306.45C281.43,-306.47 284.62,-306.55 287.7,-306.71"/>
<polygon fill="black" stroke="black" stroke-width="2" points="279.73,-302.92 269.81,-306.64 279.89,-309.92 279.73,-302.92"/>
</g>
<!-- i4_3 -->
<g id="node30" class="node">
<title>i4_3</title>
<polygon fill="black" stroke="black" points="266.4,-266.4 216,-266.4 216,-216 266.4,-216 266.4,-266.4"/>
<text text-anchor="middle" x="241.2" y="-236.15" font-family="Arial" font-size="14.00">*</text>
</g>
<!-- i3_3&#45;&gt;i4_3 -->
<g id="edge85" class="edge">
<title>i3_3&#45;&gt;i4_3</title>
<path fill="none" stroke="black" stroke-width="2" d="M247.69,-287.61C247.85,-284.54 247.93,-281.35 247.95,-278.15"/>
<polygon fill="black" stroke="black" stroke-width="2" points="251.48,-279.65 247.76,-269.73 244.48,-279.81 251.48,-279.65"/>
</g>
<!-- i3_3&#45;&gt;i4_3 -->
<g id="edge86" class="edge">
<title>i3_3&#45;&gt;i4_3</title>
<path fill="none" stroke="black" stroke-width="2" d="M234.45,-276.16C234.47,-272.97 234.55,-269.78 234.71,-266.7"/>
<polygon fill="black" stroke="black" stroke-width="2" points="230.92,-274.67 234.64,-284.59 237.92,-274.51 230.92,-274.67"/>
</g>
<!-- i4_4 -->
<g id="node31" class="node">
<title>i4_4</title>
<polygon fill="black" stroke="black" points="338.4,-266.4 288,-266.4 288,-216 338.4,-216 338.4,-266.4"/>
<text text-anchor="middle" x="313.2" y="-236.15" font-family="Arial" font-size="14.00">*</text>
</g>
<!-- i3_4&#45;&gt;i4_4 -->
<g id="edge93" class="edge">
<title>i3_4&#45;&gt;i4_4</title>
<path fill="none" stroke="black" stroke-width="2" d="M319.69,-287.61C319.85,-284.54 319.93,-281.35 319.95,-278.15"/>
<polygon fill="black" stroke="black" stroke-width="2" points="323.48,-279.65 319.76,-269.73 316.48,-279.81 323.48,-279.65"/>
</g>
<!-- i3_4&#45;&gt;i4_4 -->
<g id="edge94" class="edge">
<title>i3_4&#45;&gt;i4_4</title>
<path fill="none" stroke="black" stroke-width="2" d="M306.45,-276.16C306.47,-272.97 306.55,-269.78 306.71,-266.7"/>
<polygon fill="black" stroke="black" stroke-width="2" points="302.92,-274.67 306.64,-284.59 309.92,-274.51 302.92,-274.67"/>
</g>
<!-- i4_1&#45;&gt;i4_2 -->
<g id="edge51" class="edge">
<title>i4_1&#45;&gt;i4_2</title>
<path fill="none" stroke="black" stroke-width="2" d="M122.79,-247.69C125.86,-247.85 129.05,-247.93 132.25,-247.95"/>
<polygon fill="black" stroke="black" stroke-width="2" points="130.75,-251.48 140.67,-247.76 130.59,-244.48 130.75,-251.48"/>
</g>
<!-- i4_1&#45;&gt;i4_2 -->
<g id="edge52" class="edge">
<title>i4_1&#45;&gt;i4_2</title>
<path fill="none" stroke="black" stroke-width="2" d="M134.24,-234.45C137.43,-234.47 140.62,-234.55 143.7,-234.71"/>
<polygon fill="black" stroke="black" stroke-width="2" points="135.73,-230.92 125.81,-234.64 135.89,-237.92 135.73,-230.92"/>
</g>
<!-- i4_2&#45;&gt;i4_3 -->
<g id="edge53" class="edge">
<title>i4_2&#45;&gt;i4_3</title>
<path fill="none" stroke="black" stroke-width="2" d="M194.79,-247.69C197.86,-247.85 201.05,-247.93 204.25,-247.95"/>
<polygon fill="black" stroke="black" stroke-width="2" points="202.75,-251.48 212.67,-247.76 202.59,-244.48 202.75,-251.48"/>
</g>
<!-- i4_2&#45;&gt;i4_3 -->
<g id="edge54" class="edge">
<title>i4_2&#45;&gt;i4_3</title>
<path fill="none" stroke="black" stroke-width="2" d="M206.24,-234.45C209.43,-234.47 212.62,-234.55 215.7,-234.71"/>
<polygon fill="black" stroke="black" stroke-width="2" points="207.73,-230.92 197.81,-234.64 207.89,-237.92 207.73,-230.92"/>
</g>
<!-- i4_3&#45;&gt;i4_4 -->
<g id="edge55" class="edge">
<title>i4_3&#45;&gt;i4_4</title>
<path fill="none" stroke="black" stroke-width="2" d="M266.79,-247.69C269.86,-247.85 273.05,-247.93 276.25,-247.95"/>
<polygon fill="black" stroke="black" stroke-width="2" points="274.75,-251.48 284.67,-247.76 274.59,-244.48 274.75,-251.48"/>
</g>
<!-- i4_3&#45;&gt;i4_4 -->
<g id="edge56" class="edge">
<title>i4_3&#45;&gt;i4_4</title>
<path fill="none" stroke="black" stroke-width="2" d="M278.24,-234.45C281.43,-234.47 284.62,-234.55 287.7,-234.71"/>
<polygon fill="black" stroke="black" stroke-width="2" points="279.73,-230.92 269.81,-234.64 279.89,-237.92 279.73,-230.92"/>
</g>
</g>
</svg>
