<?xml version="1.0" encoding="UTF-8" standalone="no"?>
<!DOCTYPE svg PUBLIC "-//W3C//DTD SVG 1.1//EN"
 "http://www.w3.org/Graphics/SVG/1.1/DTD/svg11.dtd">
<!-- Generated by graphviz version 10.0.1 (20240210.2158)
 -->
<!-- Title: G Pages: 1 -->
<svg width="130pt" height="130pt"
 viewBox="0.00 0.00 130.40 130.40" xmlns="http://www.w3.org/2000/svg" xmlns:xlink="http://www.w3.org/1999/xlink">
<g id="graph0" class="graph" transform="scale(1 1) rotate(0) translate(4 126.4)">
<title>G</title>
<polygon fill="white" stroke="none" points="-4,4 -4,-126.4 126.4,-126.4 126.4,4 -4,4"/>
<!-- raiz -->
<g id="node1" class="node">
<title>raiz</title>
<polygon fill="#caff70" stroke="black" points="50.4,-122.4 0,-122.4 0,-72 50.4,-72 50.4,-122.4"/>
<text text-anchor="middle" x="25.2" y="-92.15" font-family="Arial" font-size="14.00">Root</text>
</g>
<!-- x10 -->
<g id="node2" class="node">
<title>x10</title>
<polygon fill="#c1cdcd" stroke="black" points="50.4,-50.4 0,-50.4 0,0 50.4,0 50.4,-50.4"/>
<text text-anchor="middle" x="25.2" y="-20.15" font-family="Arial" font-size="14.00">F10</text>
</g>
<!-- raiz&#45;&gt;x10 -->
<g id="edge1" class="edge">
<title>raiz&#45;&gt;x10</title>
<path fill="none" stroke="black" stroke-width="2" d="M25.2,-71.61C25.2,-68.54 25.2,-65.35 25.2,-62.15"/>
<polygon fill="black" stroke="black" stroke-width="2" points="28.7,-63.73 25.2,-53.73 21.7,-63.73 28.7,-63.73"/>
</g>
<!-- y10 -->
<g id="node3" class="node">
<title>y10</title>
<polygon fill="#c1cdcd" stroke="black" points="122.4,-122.4 72,-122.4 72,-72 122.4,-72 122.4,-122.4"/>
<text text-anchor="middle" x="97.2" y="-92.15" font-family="Arial" font-size="14.00">C10</text>
</g>
<!-- raiz&#45;&gt;y10 -->
<g id="edge2" class="edge">
<title>raiz&#45;&gt;y10</title>
<path fill="none" stroke="black" stroke-width="2" d="M50.79,-97.2C53.86,-97.2 57.05,-97.2 60.25,-97.2"/>
<polygon fill="black" stroke="black" stroke-width="2" points="58.67,-100.7 68.67,-97.2 58.67,-93.7 58.67,-100.7"/>
</g>
<!-- i10_10 -->
<g id="node4" class="node">
<title>i10_10</title>
<polygon fill="black" stroke="black" points="122.4,-50.4 72,-50.4 72,0 122.4,0 122.4,-50.4"/>
<text text-anchor="middle" x="97.2" y="-20.15" font-family="Arial" font-size="14.00">*</text>
</g>
<!-- x10&#45;&gt;i10_10 -->
<g id="edge3" class="edge">
<title>x10&#45;&gt;i10_10</title>
<path fill="none" stroke="black" stroke-width="2" d="M50.79,-31.69C53.86,-31.85 57.05,-31.93 60.25,-31.95"/>
<polygon fill="black" stroke="black" stroke-width="2" points="58.75,-35.48 68.67,-31.76 58.59,-28.48 58.75,-35.48"/>
</g>
<!-- x10&#45;&gt;i10_10 -->
<g id="edge4" class="edge">
<title>x10&#45;&gt;i10_10</title>
<path fill="none" stroke="black" stroke-width="2" d="M62.24,-18.45C65.43,-18.47 68.62,-18.55 71.7,-18.71"/>
<polygon fill="black" stroke="black" stroke-width="2" points="63.73,-14.92 53.81,-18.64 63.89,-21.92 63.73,-14.92"/>
</g>
<!-- y10&#45;&gt;i10_10 -->
<g id="edge5" class="edge">
<title>y10&#45;&gt;i10_10</title>
<path fill="none" stroke="black" stroke-width="2" d="M103.69,-71.61C103.85,-68.54 103.93,-65.35 103.95,-62.15"/>
<polygon fill="black" stroke="black" stroke-width="2" points="107.48,-63.65 103.76,-53.73 100.48,-63.81 107.48,-63.65"/>
</g>
<!-- y10&#45;&gt;i10_10 -->
<g id="edge6" class="edge">
<title>y10&#45;&gt;i10_10</title>
<path fill="none" stroke="black" stroke-width="2" d="M90.45,-60.16C90.47,-56.97 90.55,-53.78 90.71,-50.7"/>
<polygon fill="black" stroke="black" stroke-width="2" points="86.92,-58.67 90.64,-68.59 93.92,-58.51 86.92,-58.67"/>
</g>
</g>
</svg>
